<?xml version="1.0" encoding="UTF-8"?>
<svg xmlns="http://www.w3.org/2000/svg" xmlns:xlink="http://www.w3.org/1999/xlink" width="px" height="0px" viewBox="0 0 300 300" version="1.1">
<g id="surface1">
<path style=" stroke:none;fill-rule:nonzero;fill:rgb(85.09804%,85.09804%,85.09804%);fill-opacity:1;" d="M 275 150 C 275 80.964844 219.035156 25 150 25 C 80.964844 25 25 80.964844 25 150 C 25 219.035156 80.964844 275 150 275 C 219.035156 275 275 219.035156 275 150 Z M 275 150 "/>
<path style=" stroke:none;fill-rule:nonzero;fill:rgb(85.09804%,85.09804%,85.09804%);fill-opacity:1;" d="M 150 0 C 232.84375 0 300 67.15625 300 150 C 300 232.84375 232.84375 300 150 300 C 67.15625 300 0 232.84375 0 150 C 0 67.15625 67.15625 0 150 0 Z M 150 12.5 C 74.0625 12.5 12.5 74.0625 12.5 150 C 12.5 225.9375 74.0625 287.5 150 287.5 C 225.9375 287.5 287.5 225.9375 287.5 150 C 287.5 74.0625 225.9375 12.5 150 12.5 Z M 150 12.5 "/>
</g>
</svg>
